<svg id="Layer_1" data-name="Layer 1" xmlns="http://www.w3.org/2000/svg" viewBox="0 0 450 150"><path d="M37.18,92.91a2.24,2.24,0,0,1-2.24-2.24V74.52a2.24,2.24,0,1,1,4.47,0V90.67A2.24,2.24,0,0,1,37.18,92.91Z" fill="#774eff"/><path d="M42.93,101a2.25,2.25,0,0,1-2.24-2.24V82.59a2.24,2.24,0,0,1,4.48,0V98.74A2.24,2.24,0,0,1,42.93,101Z" fill="#774eff"/><path d="M48.69,105.13a2.23,2.23,0,0,1-2.24-2.23V78.44a2.24,2.24,0,0,1,4.48,0V102.9A2.23,2.23,0,0,1,48.69,105.13Z" fill="#774eff"/><path d="M54.45,98.14a2.24,2.24,0,0,1-2.24-2.24V85.43a2.24,2.24,0,1,1,4.48,0V95.9A2.24,2.24,0,0,1,54.45,98.14Z" fill="#774eff"/><path d="M100.51,101a2.24,2.24,0,0,1-2.24-2.24V82.59a2.24,2.24,0,0,1,4.47,0V98.74A2.24,2.24,0,0,1,100.51,101Z" fill="#774eff"/><path d="M94.75,105.13a2.23,2.23,0,0,1-2.24-2.23V78.44a2.24,2.24,0,0,1,4.48,0V102.9A2.24,2.24,0,0,1,94.75,105.13Z" fill="#774eff"/><path d="M89,98.14a2.24,2.24,0,0,1-2.24-2.24V85.43a2.24,2.24,0,0,1,4.48,0V95.9A2.24,2.24,0,0,1,89,98.14Z" fill="#774eff"/><path d="M42.93,74.61a2.25,2.25,0,0,1-2.24-2.24V66.85a2.24,2.24,0,0,1,4.48,0v5.52A2.24,2.24,0,0,1,42.93,74.61Z" fill="#774eff"/><path d="M48.69,67.82a2.23,2.23,0,0,1-2.24-2.23V57.52a2.24,2.24,0,1,1,4.48,0v8.07A2.23,2.23,0,0,1,48.69,67.82Z" fill="#774eff"/><path d="M54.45,63.48a2.24,2.24,0,0,1-2.24-2.24V47.44a2.24,2.24,0,0,1,4.48,0v13.8A2.24,2.24,0,0,1,54.45,63.48Z" fill="#774eff"/><path d="M60.2,60.92A2.23,2.23,0,0,1,58,58.68V50.32a2.24,2.24,0,1,1,4.47,0v8.36A2.24,2.24,0,0,1,60.2,60.92Z" fill="#774eff"/><path d="M66,59.64a2.24,2.24,0,0,1-2.24-2.24V40.73a2.24,2.24,0,0,1,4.48,0V57.4A2.24,2.24,0,0,1,66,59.64Z" fill="#774eff"/><path d="M71.72,59.11a2.24,2.24,0,0,1-2.24-2.24V51.68a2.24,2.24,0,1,1,4.48,0v5.19A2.24,2.24,0,0,1,71.72,59.11Z" fill="#774eff"/><path d="M77.48,59.64a2.24,2.24,0,0,1-2.24-2.24V40.73a2.24,2.24,0,0,1,4.48,0V57.4A2.24,2.24,0,0,1,77.48,59.64Z" fill="#774eff"/><path d="M83.23,60.92A2.24,2.24,0,0,1,81,58.68V50.32a2.24,2.24,0,1,1,4.48,0v8.36A2.24,2.24,0,0,1,83.23,60.92Z" fill="#774eff"/><path d="M89,63.48a2.24,2.24,0,0,1-2.24-2.24V47.44a2.24,2.24,0,0,1,4.48,0v13.8A2.24,2.24,0,0,1,89,63.48Z" fill="#774eff"/><path d="M94.75,67.82a2.23,2.23,0,0,1-2.24-2.23V57.52a2.24,2.24,0,0,1,4.48,0v8.07A2.24,2.24,0,0,1,94.75,67.82Z" fill="#774eff"/><path d="M100.51,74.61a2.24,2.24,0,0,1-2.24-2.24V66.85a2.24,2.24,0,0,1,4.47,0v5.52A2.24,2.24,0,0,1,100.51,74.61Z" fill="#774eff"/><path d="M106.26,92.91A2.25,2.25,0,0,1,104,90.67V74.52a2.24,2.24,0,0,1,4.48,0V90.67A2.24,2.24,0,0,1,106.26,92.91Z" fill="#774eff"/><path d="M67.46,107V80.31a4,4,0,0,0-4-4H57.79a4,4,0,0,1-4-4h0a4,4,0,0,1,4-4H87a4,4,0,0,1,4,4h0a4,4,0,0,1-4,4H81.41a4,4,0,0,0-4,4V107a4,4,0,0,1-4,4H71.5A4,4,0,0,1,67.46,107Z" fill="#774eff"/><path d="M118.06,106.46V82.66a4.56,4.56,0,0,1,4.56-4.56h0a4.56,4.56,0,0,1,4.56,4.56V87.4l-.26-.54a4.52,4.52,0,0,1,.48-4.73,10.56,10.56,0,0,1,3.21-2.71,12.7,12.7,0,0,1,1.79-.82,4.56,4.56,0,0,1,6.1,4.3v3.53l-1.1-.1c-.33,0-.67,0-1,0A9,9,0,0,0,130,88.54q-2.42,2.23-2.41,6.94v11a4.56,4.56,0,0,1-4.56,4.56h-.43A4.56,4.56,0,0,1,118.06,106.46Z" fill="#774eff"/><path d="M152.21,111.51a15.31,15.31,0,0,1-6.61-1.31,10,10,0,0,1-4.22-3.58,9.12,9.12,0,0,1-1.47-5.08,9.25,9.25,0,0,1,1.43-5.14,9.45,9.45,0,0,1,4.56-3.46A22.31,22.31,0,0,1,154,91.69h6.71a2,2,0,0,1,2,2v1.48a2,2,0,0,1-2,2.05h-5.67c-2.24,0-3.78.36-4.62,1.1a3.52,3.52,0,0,0-1.25,2.75,3.45,3.45,0,0,0,1.44,2.91,6.47,6.47,0,0,0,3.94,1.07,8.28,8.28,0,0,0,4.29-1.13,8.78,8.78,0,0,0,.77-.54,2,2,0,0,1,3.22.93h0a1.9,1.9,0,0,1,0,1.35,8.41,8.41,0,0,1-3.55,4.16A13.63,13.63,0,0,1,152.21,111.51Zm10-2.53v-4l-.17-.81-.27-.63-.17-.81V91.69a6.13,6.13,0,0,0-1.87-4.77Q157.9,85.2,154,85.2a16.64,16.64,0,0,0-5.17.83,15.88,15.88,0,0,0-2.54,1.07,2,2,0,0,1-2.8-.85l-1.35-2.62a2.17,2.17,0,0,1,.69-3.11,22.38,22.38,0,0,1,4.75-1.86,28.78,28.78,0,0,1,7.71-1q7.51,0,11.68,3.55t4.16,11.08V109a2,2,0,0,1-2,2h-4.85A2,2,0,0,1,162.24,109Z" fill="#774eff"/><path d="M196,111.51a20.16,20.16,0,0,1-9.48-2.17,16.6,16.6,0,0,1,0-29.55A20.17,20.17,0,0,1,196,77.61,18.14,18.14,0,0,1,205,79.79a13.88,13.88,0,0,1,2.28,1.6,4.22,4.22,0,0,1-.83,6.88l0,0a4.17,4.17,0,0,1-4.85-.6,7.43,7.43,0,0,0-1.5-1.14,8.29,8.29,0,0,0-4.2-1.1,8.74,8.74,0,0,0-4.4,1.1,7.86,7.86,0,0,0-3.09,3.12,11.17,11.17,0,0,0,0,9.79,7.93,7.93,0,0,0,3.09,3.12,8.84,8.84,0,0,0,4.4,1.1,8.57,8.57,0,0,0,4.2-1.07,7.05,7.05,0,0,0,1.51-1.14,4.12,4.12,0,0,1,4.87-.58h0a4.22,4.22,0,0,1,.8,6.88,14.64,14.64,0,0,1-2.26,1.57A18.13,18.13,0,0,1,196,111.51Z" fill="#774eff"/><path d="M216,107V69.67a4,4,0,0,1,4-4h1.45a4,4,0,0,1,4,4V107a4,4,0,0,1-4,4H220A4,4,0,0,1,216,107Zm8.1-12.63h0a4.06,4.06,0,0,1,1.26-2.84l13-12.3a4,4,0,0,1,2.78-1.11h.12A4,4,0,0,1,244.07,85l-7.82,8-.33.3L231.28,97l-.28.26-.06,0A4,4,0,0,1,224.06,94.35Zm15.22,15.17-7.87-9.78a4,4,0,0,1,0-5.08l.75-.93a4,4,0,0,1,6.32,0l8.42,10.71a4,4,0,0,1-3.18,6.54h-1.3A4.06,4.06,0,0,1,239.28,109.52Z" fill="#774eff"/><path d="M266.32,111.51a31.79,31.79,0,0,1-8.11-1c-.85-.22-1.64-.46-2.38-.72a3.81,3.81,0,0,1-2.2-5.2h0a3.77,3.77,0,0,1,4.8-1.9c.69.27,1.41.51,2.17.73a22,22,0,0,0,6.09.88,10,10,0,0,0,4.68-.79,2.46,2.46,0,0,0,1.37-2.21,1.86,1.86,0,0,0-1.07-1.74,9.42,9.42,0,0,0-2.84-.89c-1.19-.2-2.48-.4-3.89-.61s-2.82-.48-4.25-.82a14.73,14.73,0,0,1-3.92-1.56,8.07,8.07,0,0,1-2.84-2.82,8.71,8.71,0,0,1-1.07-4.59,8.88,8.88,0,0,1,1.8-5.5A12,12,0,0,1,259.89,79a22,22,0,0,1,8.2-1.38,33.24,33.24,0,0,1,6.86.74l1.25.26a4,4,0,0,1,2.8,5.63h0A3.33,3.33,0,0,1,274.81,86a13.88,13.88,0,0,0-2-.59,22,22,0,0,0-4.68-.52,9.62,9.62,0,0,0-4.65.85A2.66,2.66,0,0,0,262,87.53a2.3,2.3,0,0,0,1.28,2.33,10.51,10.51,0,0,0,2.61.85c1.18.24,2.48.46,3.89.64a36.6,36.6,0,0,1,4.25.83,15.07,15.07,0,0,1,3.88,1.56,8.07,8.07,0,0,1,2.85,2.75,8.46,8.46,0,0,1,1.1,4.56,8.62,8.62,0,0,1-1.83,5.42,12.11,12.11,0,0,1-5.3,3.7A23.4,23.4,0,0,1,266.32,111.51Z" fill="#774eff"/><path d="M294.13,111H292.6a4.18,4.18,0,0,1-4.19-4.19V72.38a4.19,4.19,0,0,1,4.19-4.19h1.53a4.2,4.2,0,0,1,4.19,4.19v34.45A4.19,4.19,0,0,1,294.13,111Zm20.19-17.56H301.78a4.18,4.18,0,0,1-4.19-4.19h0a4.19,4.19,0,0,1,4.19-4.19h12.54a4.2,4.2,0,0,1,4.19,4.19h0A4.19,4.19,0,0,1,314.32,93.46ZM322,68.19h1.53a4.2,4.2,0,0,1,4.19,4.19v34.45A4.19,4.19,0,0,1,323.5,111H322a4.18,4.18,0,0,1-4.19-4.19V72.38A4.19,4.19,0,0,1,322,68.19Z" fill="#774eff"/><path d="M351.06,111.51a16.26,16.26,0,0,1-7.31-1.59,11.31,11.31,0,0,1-5-4.86A17.46,17.46,0,0,1,337,96.71V82.63a4.53,4.53,0,0,1,4.53-4.53H342a4.52,4.52,0,0,1,4.52,4.53V95.3c0,2.73.59,4.74,1.75,6a6.27,6.27,0,0,0,4.92,1.93,7.87,7.87,0,0,0,3.92-1,6.52,6.52,0,0,0,2.69-2.93,11.32,11.32,0,0,0,1-5V82.63a4.53,4.53,0,0,1,4.53-4.53h.49a4.53,4.53,0,0,1,4.53,4.53V106.5a4.52,4.52,0,0,1-4.53,4.52h0a4.52,4.52,0,0,1-4.53-4.52v-1.87a.77.77,0,0,1,1.42-.4h0a.76.76,0,0,1,0,.76,11.26,11.26,0,0,1-4.66,4.78A14.48,14.48,0,0,1,351.06,111.51Z" fill="#774eff"/><path d="M379.21,106.47V70.18a4.56,4.56,0,0,1,4.56-4.56h.43a4.56,4.56,0,0,1,4.55,4.56V84.92l-.59,9.4v.37l.17,9.6v2.18a4.55,4.55,0,0,1-4.55,4.55h0A4.56,4.56,0,0,1,379.21,106.47Zm19.46,5a14.51,14.51,0,0,1-7.47-1.83,11.73,11.73,0,0,1-4.77-5.6,23.81,23.81,0,0,1-1.65-9.52A22.66,22.66,0,0,1,386.52,85a12.19,12.19,0,0,1,4.86-5.57,14.17,14.17,0,0,1,7.29-1.84A16.72,16.72,0,0,1,407,79.7a15.26,15.26,0,0,1,5.87,5.87,19.6,19.6,0,0,1,0,17.93,15.54,15.54,0,0,1-5.87,5.9A16.53,16.53,0,0,1,398.67,111.51ZM397,103.68a8.29,8.29,0,0,0,4.26-1.1,8,8,0,0,0,3-3.15,11,11,0,0,0,0-9.76,8.1,8.1,0,0,0-3-3.12,8.2,8.2,0,0,0-4.26-1.1,8.29,8.29,0,0,0-4.28,1.1,7.91,7.91,0,0,0-3,3.12,11.37,11.37,0,0,0,0,9.76,7.86,7.86,0,0,0,3,3.15A8.39,8.39,0,0,0,397,103.68Z" fill="#774eff"/></svg>